<?xml version="1.0" encoding="utf-8"?>
<!-- Generator: Adobe Illustrator 21.0.0, SVG Export Plug-In . SVG Version: 6.00 Build 0)  -->
<svg version="1.1" id="Layer_1" xmlns="http://www.w3.org/2000/svg" xmlns:xlink="http://www.w3.org/1999/xlink" x="0px" y="0px"
	 viewBox="0 0 380.9 94.8" style="enable-background:new 0 0 380.9 94.8;" xml:space="preserve">
<style type="text/css">
	.st0{fill:#45B757;}
	.st1{fill:#00582A;}
	.st2{fill:#92C83E;}
	.st3{fill:#B1E2F6;}
	.st4{fill:#76CAE1;}
	.st5{fill:#40BFB4;}
	.st6{fill:#4E4C50;}
</style>
<g>
	<g>
		<path class="st0" d="M70.9,69.2c1.8-2.9,3.1-6,3.9-9.2c0.6-2.5,0.9-5,1-7.5c0-0.7,0-1.3,0-2c-0.1-3-0.7-5.9-1.6-8.8
			c-0.2-0.5-0.3-1-0.5-1.4c-14.4,2.6-24.8,11.2-35,17.7c6.1,3.2,11.9,6.5,17.7,8.8C61.7,68.7,66.6,69.4,70.9,69.2z"/>
		<path class="st1" d="M12.8,65.9c1.7,3.6,4,7,7,9.9c6,5.9,14.1,9.2,22.6,9.3c8.5,0.1,16.6-3,22.8-8.7c2.3-2.1,4.2-4.5,5.8-7.1
			c-4.4,0.1-9.3-0.5-14.6-2.5c-5.9-2.2-11.6-5.6-17.7-8.8c-2.3,1.4-4.6,2.8-6.9,3.9C24.7,65.3,18.3,66.2,12.8,65.9z"/>
		<path class="st2" d="M9.8,52.3C9.8,52.3,9.8,52.3,9.8,52.3c0,2.8,0.4,5.5,1,8c0.1,0.4,0.2,0.9,0.4,1.3c0.4,1.4,1,2.9,1.6,4.2
			c5.5,0.3,11.9-0.5,18.9-4c2.3-1.1,4.6-2.5,6.9-3.9c-8.4-4.4-17.6-8.5-28.7-8.8c-0.1,0.8-0.1,1.6-0.1,2.4C9.8,51.8,9.8,52,9.8,52.3
			z"/>
		<path class="st3" d="M83.6,39.5c-0.7-2.2-1.5-4.3-2.6-6.4l3.7-3.7l2.3,2.3l6.9-6.9L91.3,22c-3.5-3.5-9.3-3.5-12.8,0l-4.9,4.9
			c-2.6,2.6-3.2,6.5-1.5,9.7c0.6,1.2,1.2,2.4,1.6,3.6C76.8,39.7,80.1,39.4,83.6,39.5z"/>
		<path class="st4" d="M11.2,61.6c-0.1-0.4-0.3-0.9-0.4-1.3c-0.7-2.6-1-5.2-1-8c0,0,0-0.1,0-0.1c0-0.2,0-0.5,0-0.7
			c0-0.8,0.1-1.6,0.1-2.4c-3.1-0.1-6.4,0.1-9.8,0.7c0,0.8-0.1,1.7-0.1,2.5c0,2.1,0.2,4.2,0.5,6.2c0.2,1.6,0.6,3.2,1,4.8
			c2.9,1.1,6.7,2.3,11.2,2.5C12.2,64.5,11.6,63.1,11.2,61.6z"/>
		<path class="st3" d="M9.9,49.1c0.5-5.4,2.2-10.6,5.2-15.1c1.3-1.9,2.7-3.7,4.4-5.4C29.7,18.4,45.3,16,58.1,22.8
			c3.3,1.7,7.2,1.1,9.8-1.5l4.9-4.9c1.7-1.7,2.7-4,2.7-6.4c0-2.4-0.9-4.7-2.7-6.4L69.3,0l-6.9,6.9l3,3l-3.7,3.7
			c-16.5-8.2-36.1-5-49.2,8.1c-3.9,3.9-6.9,8.3-9,13.2c-2,4.6-3.2,9.6-3.5,14.8C3.5,49.2,6.8,49,9.9,49.1z"/>
		<path class="st4" d="M85.1,46.2c-0.3-2.3-0.8-4.5-1.5-6.7c-3.6-0.1-6.9,0.2-10,0.8c0.2,0.5,0.4,1,0.5,1.4c0.9,2.9,1.5,5.8,1.6,8.8
			c0,0.7,0,1.3,0,2c0,2.5-0.4,5-1,7.5c-0.8,3.2-2.1,6.4-3.9,9.2c4.7-0.1,8.7-1.2,11.9-2.4c1-2.8,1.8-5.8,2.2-8.8
			C85.6,54.1,85.7,50.1,85.1,46.2z"/>
		<path class="st5" d="M65.2,76.3C59,82,50.9,85.1,42.4,85c-8.5-0.1-16.5-3.4-22.6-9.3c-3-2.9-5.3-6.2-7-9.9
			c-4.6-0.3-8.4-1.4-11.2-2.5c2,7.3,5.9,13.9,11.5,19.4c7.8,7.6,18.2,11.9,29.2,12c0.2,0,0.4,0,0.6,0c10.8,0,21.1-4,29-11.3
			c5.1-4.7,8.8-10.4,11.1-16.6c-3.2,1.3-7.3,2.3-11.9,2.4C69.4,71.8,67.5,74.2,65.2,76.3z"/>
	</g>
	<g>
		<path class="st6" d="M119.4,67.8v-1.4c0-2.4,0.7-3.2,2.3-5l16.7-19.3h-14.3c-2.9,0-4.3-0.5-4.3-3.1v-2c0-2.6,1.4-3.2,4.3-3.2h23.8
			c2.9,0,4.1,1.1,4.1,3v1.3c0,2.3-0.8,3-2.3,4.9l-17.2,19.6h15.7c2.9,0,4.4,0.5,4.4,3.1v2c0,2.6-1.4,3.2-4.4,3.2h-24.8
			C120.5,70.9,119.4,69.7,119.4,67.8z"/>
		<path class="st6" d="M177.4,63.7c5,0,8.3-2.2,10.6-4.1c1.4-1.2,5-0.9,5,3.7c0,3.9-5.7,8.4-16,8.4c-12,0-20.3-7.5-20.3-19.1
			c0-11.3,8.5-19.7,19.7-19.7c10.9,0,18.4,7.7,18.4,18v2c-0.1,1.9-0.6,2.2-2.6,2.2h-25.3C167.7,60.5,171.6,63.7,177.4,63.7z
			 M184.8,48.8c-0.2-5.1-3.5-8.5-8.7-8.5c-5,0-8.6,3.5-9.3,8.5H184.8z"/>
		<path class="st6" d="M212.2,66.6c0,3.8-2,4.3-4.7,4.3h-1.1c-2.9,0-4.8-0.4-4.8-4.3V23.6c0-3.9,2-4.3,4.8-4.3h1.1
			c2.7,0,4.7,0.5,4.7,4.3V66.6z"/>
		<path class="st6" d="M239.3,63.7c5,0,8.3-2.2,10.6-4.1c1.4-1.2,5-0.9,5,3.7c0,3.9-5.7,8.4-16,8.4c-12,0-20.3-7.5-20.3-19.1
			c0-11.3,8.5-19.7,19.7-19.7c10.9,0,18.4,7.7,18.4,18v2c-0.1,1.9-0.6,2.2-2.6,2.2h-25.3C229.6,60.5,233.6,63.7,239.3,63.7z
			 M246.8,48.8c-0.2-5.1-3.5-8.5-8.7-8.5c-5,0-8.6,3.5-9.3,8.5H246.8z"/>
		<path class="st6" d="M286.1,33.1c9.6,0,13.8,6.9,13.8,15.4v18.8c0,3.8-2,4-4.7,4H294c-2.9,0-4.8-0.1-4.8-4V50c0-5-2.5-8-6.9-8
			c-4.9,0-8.1,3.3-8.1,6.6v18.6c0,3.8-2,4-4.7,4h-1.1c-2.9,0-4.8-0.1-4.8-4V35.6c0-1.4,1.9-2.1,4-2.1c2.7,0,5.8,1.3,6.6,6.1
			C276.6,35.8,280.4,33.1,286.1,33.1z"/>
		<path class="st6" d="M318.1,66.9c0,3.8-2,4.3-4.7,4.3h-1.1c-2.9,0-4.8-0.4-4.8-4.3V23.6c0-3.9,2-4.3,4.8-4.3h1.1
			c2.7,0,4.7,0.5,4.7,4.3v26.1l10.5-13.8c2-2.6,4.1-2.7,5.9-2.7c5.3,0,6.3,2.6,5.3,4l-11.3,14.2l12.3,15.2c1.1,1.4-0.3,4.5-4.4,4.5
			c-3.6,0-5-0.2-7.1-2.9l-11.3-14.5V66.9z"/>
		<path class="st6" d="M370.5,66.2v-0.9c-2.6,3.8-7.3,6.2-12.8,6.2c-7.8,0-12.4-4.4-12.4-10.7c0-8.4,7.6-12.3,23.8-12.6h1.2
			c0-4.7-2.6-7.3-7.6-7.3c-4.6,0-7.2,2.6-9.2,4.7c-2.6,2.9-6.6-0.3-6.6-3.5c0-4.7,6.8-9.2,16.5-9.2c11.7,0,17.5,5.3,17.5,14.2v21.4
			c0,2-1.9,2.8-4,2.8C373.1,71.2,370.5,70,370.5,66.2z M370.3,56.2v-2.1l-2,0.1c-8.4,0.2-12.8,1.9-12.8,5.9c0,2.8,2.2,4.5,5.7,4.5
			C366.6,64.5,370.3,61,370.3,56.2z"/>
	</g>
</g>
</svg>
